# xmcd
#
# Track frame offsets:
# 150
# 11903
# 22413
# 40830
# 51380
# 64136
# 77667
# 91434
# 103042
# 116949
# 126710
# 139172
#
# Disc length: 2002 seconds
#
#
# Revision: 0
# Processed by: cddbd v1.5.2PL0 Copyright (c) Steve Scherf et al.
# Submitted via: FreeRIP 2.945 
#
DISCID=b807d00c
DTITLE=Os Atuais - Eu Voltei
DYEAR=1900
DGENRE=
TTITLE0=Buona Sera, Angelina
TTITLE1=Morena de 15 Anos
TTITLE2=Eu Voltei
TTITLE3=O Primeiro Beijo
TTITLE4=Meu Segredo
TTITLE5=Deixa de Chorar Menina
TTITLE6=Um Lindo Dia
TTITLE7=Ronny Boy
TTITLE8=Não te Esqueci
TTITLE9=Chiu Chiu
TTITLE10=Me Dá Me Dá
TTITLE11=Caballito
EXTD=
EXTT0=
EXTT1=
EXTT2=
EXTT3=
EXTT4=
EXTT5=
EXTT6=
EXTT7=
EXTT8=
EXTT9=
EXTT10=
EXTT11=
PLAYORDER=
